<?xml version="1.0" encoding="UTF-8" standalone="no"?>
<!-- Created with Inkscape (http://www.inkscape.org/) -->

<svg
   xmlns:dc="http://purl.org/dc/elements/1.1/"
   xmlns:cc="http://creativecommons.org/ns#"
   xmlns:rdf="http://www.w3.org/1999/02/22-rdf-syntax-ns#"
   xmlns:svg="http://www.w3.org/2000/svg"
   xmlns="http://www.w3.org/2000/svg"
   xmlns:sodipodi="http://sodipodi.sourceforge.net/DTD/sodipodi-0.dtd"
   xmlns:inkscape="http://www.inkscape.org/namespaces/inkscape"
   width="1024"
   height="1024"
   viewBox="0 0 270.93333 270.93334"
   version="1.1"
   id="svg8"
   inkscape:version="0.92.0 r15299"
   sodipodi:docname="Logo-Merged.svg"
   inkscape:export-filename="D:\Files\Documents\Logo_black.png"
   inkscape:export-xdpi="96"
   inkscape:export-ydpi="96">
  <defs
     id="defs2" />
  <sodipodi:namedview
     id="base"
     pagecolor="#000000"
     bordercolor="#666666"
     borderopacity="1.0"
     inkscape:pageopacity="0"
     inkscape:pageshadow="2"
     inkscape:zoom="0.59979839"
     inkscape:cx="352.11866"
     inkscape:cy="391.79156"
     inkscape:document-units="mm"
     inkscape:current-layer="layer1"
     showgrid="false"
     units="px"
     inkscape:pagecheckerboard="false"
     fit-margin-top="0"
     fit-margin-left="0"
     fit-margin-right="0"
     fit-margin-bottom="0"
     inkscape:window-width="1920"
     inkscape:window-height="1017"
     inkscape:window-x="-8"
     inkscape:window-y="-8"
     inkscape:window-maximized="1" />
  <metadata
     id="metadata5">
    <rdf:RDF>
      <cc:Work
         rdf:about="">
        <dc:format>image/svg+xml</dc:format>
        <dc:type
           rdf:resource="http://purl.org/dc/dcmitype/StillImage" />
        <dc:title></dc:title>
      </cc:Work>
    </rdf:RDF>
  </metadata>
  <g
     inkscape:label="Layer 1"
     inkscape:groupmode="layer"
     id="layer1"
     transform="translate(12.473226,-12.466236)">
    <path
       style="color:#000000;font-style:normal;font-variant:normal;font-weight:normal;font-stretch:normal;font-size:medium;line-height:normal;font-family:sans-serif;font-variant-ligatures:normal;font-variant-position:normal;font-variant-caps:normal;font-variant-numeric:normal;font-variant-alternates:normal;font-feature-settings:normal;text-indent:0;text-align:start;text-decoration:none;text-decoration-line:none;text-decoration-style:solid;text-decoration-color:#000000;letter-spacing:normal;word-spacing:normal;text-transform:none;writing-mode:lr-tb;direction:ltr;text-orientation:mixed;dominant-baseline:auto;baseline-shift:baseline;text-anchor:start;white-space:normal;shape-padding:0;clip-rule:nonzero;display:inline;overflow:visible;visibility:visible;opacity:1;isolation:auto;mix-blend-mode:normal;color-interpolation:sRGB;color-interpolation-filters:linearRGB;solid-color:#000000;solid-opacity:1;vector-effect:none;fill:#ff9800;fill-opacity:1;fill-rule:nonzero;stroke:none;stroke-width:15.99999905;stroke-linecap:butt;stroke-linejoin:miter;stroke-miterlimit:4;stroke-dasharray:none;stroke-dashoffset:0;stroke-opacity:1;color-rendering:auto;image-rendering:auto;shape-rendering:auto;text-rendering:auto;enable-background:accumulate"
       d="M 356.16602 25.880859 L 338.11328 57.148438 L 356.16602 88.414062 L 373.79492 88.414062 L 352.0625 126.05859 L 373.79492 163.70117 L 300.30078 163.70117 L 263.55469 227.34961 L 241.82031 189.70508 L 198.35352 189.70508 L 207.16797 174.4375 L 189.11719 143.17188 L 153.01172 143.17188 L 137.26953 170.4375 L 134.96094 174.4375 L 153.01172 205.70508 L 170.64062 205.70508 L 158.14453 227.34961 L 149.33008 212.08203 L 113.22656 212.08203 L 97.484375 239.34766 L 95.175781 243.34766 L 113.22656 274.61523 L 149.33203 274.61523 L 158.14648 259.34766 L 179.87891 296.99219 L 241.82031 296.99219 L 263.55469 259.34766 L 300.30078 322.99609 L 373.79297 322.99609 L 272.24609 498.88281 L 235.49805 435.23633 L 162.00586 435.23633 L 183.73828 397.5918 L 152.76758 343.94922 L 109.30078 343.94922 L 118.11523 328.68164 L 100.06445 297.41602 L 63.958984 297.41602 L 48.216797 324.68164 L 45.908203 328.68164 L 63.958984 359.94922 L 81.587891 359.94922 L 69.091797 381.5918 L 60.277344 366.32617 L 24.173828 366.32617 L 8.4316406 393.5918 L 6.1230469 397.5918 L 24.173828 428.85938 L 60.279297 428.85938 L 69.09375 413.5918 L 90.826172 451.23633 L 134.29297 451.23633 L 97.546875 514.88281 L 134.29297 578.53125 L 90.826172 578.53125 L 69.09375 616.17383 L 60.279297 600.90625 L 24.173828 600.90625 L 6.1230469 632.17383 L 21.865234 659.44141 L 24.173828 663.44141 L 60.279297 663.44141 L 69.09375 648.17383 L 81.589844 669.81641 L 63.958984 669.81641 L 45.908203 701.08398 L 61.650391 728.35156 L 63.960938 732.35156 L 100.06445 732.35156 L 118.11523 701.08398 L 109.30078 685.81641 L 152.76758 685.81641 L 183.74023 632.17383 L 162.00391 594.5293 L 235.49805 594.5293 L 272.24609 530.88281 L 373.79297 706.76953 L 300.30078 706.77148 L 263.55469 770.41797 L 241.82031 732.77539 L 179.87891 732.77539 L 158.14648 770.41797 L 149.33203 755.15039 L 113.22656 755.15039 L 95.175781 786.41797 L 110.91797 813.68555 L 113.22656 817.68555 L 149.33203 817.68555 L 158.14648 802.41797 L 170.64258 824.06055 L 153.01172 824.06055 L 134.96094 855.32812 L 150.70312 882.5957 L 153.01367 886.5957 L 189.11719 886.5957 L 207.16797 855.32812 L 198.35352 840.06055 L 241.82031 840.06055 L 263.55469 802.41797 L 300.30078 866.06445 L 373.79297 866.06445 L 352.06055 903.70898 L 373.79492 941.35156 L 356.16602 941.35156 L 338.11328 972.61914 L 356.16602 1003.8848 L 387.65039 1003.8848 L 392.26953 1003.8848 L 410.32227 972.61914 L 401.50781 957.35156 L 426.49805 957.35156 L 417.68359 972.61914 L 435.73633 1003.8848 L 467.22266 1003.8848 L 471.83984 1003.8848 L 489.89258 972.61914 L 471.83984 941.35156 L 454.21289 941.35156 L 475.94531 903.70898 L 444.97461 850.06445 L 401.50781 850.06445 L 438.25391 786.41797 L 401.50781 722.76953 L 604.60352 722.76953 L 567.85742 786.41797 L 604.60352 850.06445 L 561.13867 850.06445 L 530.16797 903.70898 L 551.90039 941.35156 L 534.27148 941.35156 L 516.21875 972.61914 L 534.27148 1003.8848 L 565.75586 1003.8848 L 570.375 1003.8848 L 588.42773 972.61914 L 579.61328 957.35156 L 604.60547 957.35156 L 595.79102 972.61914 L 613.8418 1003.8848 L 645.32812 1003.8848 L 649.94727 1003.8848 L 667.99805 972.61914 L 649.94531 941.35156 L 632.31836 941.35156 L 654.05078 903.70898 L 632.31836 866.06445 L 705.81055 866.06445 L 742.55664 802.41602 L 764.29102 840.06055 L 807.75781 840.06055 L 798.94336 855.32812 L 816.99609 886.5957 L 853.09961 886.5957 L 868.8418 859.32812 L 871.15039 855.32812 L 853.09961 824.06055 L 835.4707 824.06055 L 847.9668 802.41797 L 856.78125 817.68555 L 892.88477 817.68359 L 908.62695 790.41797 L 910.9375 786.41797 L 892.88477 755.15039 L 856.78125 755.15039 L 847.9668 770.41797 L 826.23242 732.77539 L 764.29102 732.77344 L 742.55664 770.41797 L 705.81055 706.77148 L 632.31836 706.76953 L 733.86523 530.88281 L 770.61328 594.5293 L 844.10547 594.5293 L 822.37305 632.17383 L 853.34375 685.81641 L 896.81055 685.81641 L 887.99609 701.08398 L 906.04883 732.35156 L 942.15234 732.35156 L 957.89453 705.08398 L 960.20508 701.08398 L 942.15234 669.81641 L 924.52344 669.81641 L 937.01953 648.17383 L 945.83398 663.44141 L 981.9375 663.44141 L 997.67969 636.17383 L 999.99023 632.17383 L 981.9375 600.90625 L 945.83398 600.90625 L 937.01953 616.17383 L 915.28516 578.53125 L 871.81836 578.5293 L 908.56445 514.88281 L 871.81836 451.23633 L 915.28516 451.23633 L 937.01953 413.5918 L 945.83398 428.85938 L 981.9375 428.85938 L 999.99023 397.5918 L 984.24805 370.32617 L 981.9375 366.32617 L 945.83398 366.32617 L 937.01953 381.5918 L 924.52344 359.94922 L 942.15234 359.94922 L 960.20312 328.68164 L 944.46094 301.41602 L 942.15234 297.41602 L 906.04883 297.41602 L 887.99609 328.68164 L 896.81055 343.94922 L 853.34375 343.94922 L 822.37305 397.5918 L 844.10547 435.23633 L 770.61328 435.23633 L 733.86523 498.88281 L 632.31836 322.99609 L 705.81055 322.99609 L 742.55664 259.34766 L 764.29102 296.99219 L 826.23242 296.99219 L 847.9668 259.34766 L 856.78125 274.61523 L 892.88477 274.61523 L 910.9375 243.34766 L 895.19336 216.08203 L 892.88477 212.08203 L 856.78125 212.08203 L 847.9668 227.34766 L 835.4707 205.70508 L 853.09961 205.70508 L 871.15039 174.4375 L 855.4082 147.17188 L 853.09961 143.17188 L 816.99609 143.17188 L 798.94336 174.4375 L 807.75781 189.70508 L 764.29102 189.70508 L 742.55664 227.34766 L 705.81055 163.70117 L 632.31836 163.70117 L 654.05078 126.05859 L 632.31836 88.414062 L 649.94531 88.414062 L 667.99805 57.148438 L 649.94531 25.880859 L 618.46094 25.880859 L 613.8418 25.880859 L 595.79102 57.148438 L 604.60352 72.414062 L 579.61328 72.414062 L 588.42773 57.148438 L 570.375 25.880859 L 538.89062 25.880859 L 534.27148 25.880859 L 516.21875 57.148438 L 534.27148 88.414062 L 551.90039 88.414062 L 530.16797 126.05859 L 561.13672 179.70117 L 604.60352 179.70117 L 567.85742 243.34766 L 604.60352 306.99609 L 401.50781 306.99609 L 438.25391 243.34766 L 401.50781 179.70117 L 444.97461 179.70117 L 475.94531 126.05859 L 454.21289 88.414062 L 471.83984 88.414062 L 489.89258 57.148438 L 471.83984 25.880859 L 440.35547 25.880859 L 435.73633 25.880859 L 417.68359 57.148438 L 426.49805 72.414062 L 401.50781 72.414062 L 410.32227 57.148438 L 392.26953 25.880859 L 360.78516 25.880859 L 356.16602 25.880859 z M 365.40234 41.880859 L 383.03125 41.880859 L 391.8457 57.148438 L 383.03125 72.414062 L 365.40234 72.414062 L 356.58789 57.148438 L 365.40234 41.880859 z M 444.97461 41.880859 L 462.60352 41.880859 L 471.41797 57.148438 L 462.60352 72.414062 L 444.97461 72.414062 L 436.16016 57.148438 L 444.97461 41.880859 z M 543.50781 41.880859 L 561.13867 41.880859 L 569.95312 57.148438 L 561.13867 72.414062 L 543.50977 72.414062 L 534.69336 57.148438 L 543.50781 41.880859 z M 623.08008 41.880859 L 640.70898 41.880859 L 649.52344 57.148438 L 640.70898 72.414062 L 623.08008 72.414062 L 614.26562 57.148438 L 623.08008 41.880859 z M 392.26953 88.414062 L 435.73633 88.414062 L 457.4707 126.05859 L 435.73633 163.70117 L 392.26953 163.70117 L 370.53711 126.05859 L 392.26953 88.414062 z M 570.375 88.414062 L 613.8418 88.414062 L 635.57617 126.05859 L 613.8418 163.70117 L 570.375 163.70117 L 548.64258 126.05859 L 570.375 88.414062 z M 162.25 159.17188 L 179.87891 159.17188 L 188.69336 174.4375 L 179.87891 189.70508 L 162.25 189.70508 L 153.43555 174.4375 L 162.25 159.17188 z M 826.23242 159.17188 L 843.86133 159.17188 L 852.67578 174.4375 L 843.86133 189.70508 L 826.23242 189.70508 L 817.41797 174.4375 L 826.23242 159.17188 z M 309.53906 179.70117 L 383.0332 179.70117 L 419.7793 243.34766 L 383.03125 306.99609 L 309.53906 306.99609 L 272.79297 243.34961 L 309.53906 179.70117 z M 623.07812 179.70117 L 623.08008 179.70117 L 696.57422 179.70117 L 733.32031 243.34766 L 696.57422 306.99609 L 623.08203 306.99609 L 623.08008 306.99609 L 586.33203 243.34766 L 623.07812 179.70117 z M 189.11719 205.70508 L 232.58398 205.70508 L 254.31641 243.34961 L 232.58398 280.99219 L 189.11719 280.99219 L 167.38281 243.34766 L 189.11719 205.70508 z M 773.5293 205.70508 L 816.99609 205.70508 L 838.72852 243.34766 L 816.99609 280.99219 L 773.5293 280.99219 L 751.79492 243.34766 L 773.5293 205.70508 z M 122.46484 228.08203 L 140.09375 228.08203 L 148.9082 243.34961 L 140.09375 258.61523 L 122.46484 258.61523 L 113.65039 243.34961 L 122.46484 228.08203 z M 866.01758 228.08203 L 883.64648 228.08203 L 892.46094 243.34766 L 883.64648 258.61523 L 866.01758 258.61523 L 857.20312 243.34766 L 866.01758 228.08203 z M 73.197266 313.41602 L 90.826172 313.41602 L 99.640625 328.68164 L 90.826172 343.94922 L 73.197266 343.94922 L 64.382812 328.68164 L 73.197266 313.41602 z M 915.28516 313.41602 L 932.91406 313.41602 L 941.72852 328.68164 L 932.91406 343.94922 L 915.28516 343.94922 L 906.4707 328.68164 L 915.28516 313.41602 z M 392.27148 322.99414 L 613.83984 322.99414 L 613.8418 322.99414 L 613.84375 322.99609 L 724.62891 514.88086 L 724.62891 514.88281 L 724.62695 514.88281 L 724.62891 514.88477 L 613.84375 706.76953 L 613.8418 706.76953 L 613.83984 706.77148 L 392.27148 706.77148 L 392.26953 706.76953 L 392.26562 706.76953 L 281.48438 514.88281 L 392.26562 322.99609 L 392.26953 322.99609 L 392.27148 322.99414 z M 100.06445 359.94922 L 143.5293 359.94922 L 165.26367 397.5918 L 143.53125 435.23633 L 100.06445 435.23633 L 78.330078 397.5918 L 100.06445 359.94922 z M 862.58203 359.94922 L 906.04883 359.94922 L 927.78125 397.5918 L 906.04883 435.23633 L 862.58203 435.23633 L 840.84766 397.5918 L 862.58203 359.94922 z M 33.412109 382.32617 L 51.041016 382.32617 L 59.855469 397.5918 L 51.041016 412.85938 L 33.412109 412.85938 L 24.597656 397.59375 L 33.412109 382.32617 z M 955.07031 382.32617 L 972.69922 382.32617 L 981.51367 397.5918 L 972.69922 412.85938 L 955.07031 412.85938 L 946.25586 397.5918 L 955.07031 382.32617 z M 152.76758 451.23633 L 226.26172 451.23633 L 263.00781 514.88281 L 226.26172 578.53125 L 152.76953 578.53125 L 116.02148 514.88281 L 152.76758 451.23633 z M 779.84961 451.23633 L 853.3418 451.23633 L 890.08984 514.88281 L 853.34375 578.5293 L 853.3418 578.53125 L 779.84961 578.53125 L 743.10352 514.88281 L 779.84961 451.23633 z M 862.58203 594.5293 L 906.04883 594.53125 L 927.78125 632.17383 L 906.04883 669.81641 L 862.58203 669.81641 L 840.84766 632.17383 L 862.58203 594.5293 z M 100.06445 594.53125 L 143.53125 594.53125 L 165.26367 632.17383 L 143.53125 669.81641 L 100.06445 669.81641 L 78.330078 632.17383 L 100.06445 594.53125 z M 33.412109 616.90625 L 51.041016 616.90625 L 59.855469 632.17383 L 51.041016 647.44141 L 33.412109 647.44141 L 24.597656 632.17383 L 33.412109 616.90625 z M 955.07031 616.90625 L 972.69922 616.90625 L 981.51367 632.17383 L 972.69922 647.44141 L 955.07031 647.44141 L 946.25586 632.17383 L 955.07031 616.90625 z M 73.197266 685.81641 L 90.826172 685.81641 L 99.640625 701.08398 L 90.826172 716.35156 L 73.197266 716.35156 L 64.382812 701.08398 L 73.197266 685.81641 z M 915.28516 685.81641 L 932.91406 685.81641 L 941.72852 701.08398 L 932.91406 716.35156 L 915.28516 716.35156 L 906.4707 701.08398 L 915.28516 685.81641 z M 309.53906 722.76953 L 383.03125 722.77148 L 419.7793 786.41797 L 383.0332 850.06445 L 309.53906 850.06445 L 272.79102 786.41992 L 272.79102 786.41797 L 309.53906 722.76953 z M 696.57422 722.76953 L 733.32031 786.41602 L 696.57422 850.06445 L 623.08008 850.06445 L 586.33203 786.41797 L 623.08008 722.77148 L 696.57422 722.76953 z M 773.5293 748.77344 L 816.99414 748.77344 L 838.72852 786.41797 L 816.99609 824.06055 L 773.5293 824.06055 L 751.79492 786.41797 L 773.5293 748.77344 z M 189.11719 748.77539 L 232.58398 748.77539 L 254.31641 786.41797 L 232.58398 824.06055 L 189.11719 824.06055 L 167.38281 786.41797 L 189.11719 748.77539 z M 122.46484 771.15039 L 140.09375 771.15039 L 148.9082 786.41797 L 140.09375 801.68555 L 122.46484 801.68555 L 113.65039 786.41797 L 122.46484 771.15039 z M 866.01758 771.15039 L 883.64648 771.15039 L 892.46094 786.41797 L 883.64648 801.68555 L 866.01758 801.68555 L 857.20312 786.41797 L 866.01758 771.15039 z M 162.25 840.06055 L 179.87891 840.06055 L 188.69336 855.32812 L 179.87891 870.5957 L 162.25 870.5957 L 153.43555 855.32812 L 162.25 840.06055 z M 826.23242 840.06055 L 843.86133 840.06055 L 852.67578 855.32812 L 843.86133 870.5957 L 826.23242 870.5957 L 817.41797 855.32812 L 826.23242 840.06055 z M 392.26953 866.06445 L 435.73633 866.06445 L 457.46875 903.70898 L 435.73633 941.35156 L 392.26953 941.35156 L 370.53711 903.70898 L 392.26953 866.06445 z M 570.375 866.06445 L 613.8418 866.06445 L 635.57617 903.70703 L 613.8418 941.35156 L 570.375 941.35156 L 548.64258 903.70898 L 570.375 866.06445 z M 365.40234 957.35156 L 383.03125 957.35156 L 391.84766 972.61914 L 383.0332 987.88477 L 365.40234 987.88477 L 356.58789 972.61914 L 365.40234 957.35156 z M 444.97461 957.35156 L 462.60352 957.35156 L 471.41797 972.61914 L 462.60352 987.88477 L 444.97461 987.88477 L 436.16016 972.61914 L 444.97461 957.35156 z M 543.50977 957.35156 L 561.13867 957.35156 L 569.95312 972.61914 L 561.13867 987.88477 L 543.50977 987.88477 L 534.69531 972.61914 L 543.50977 957.35156 z M 623.08008 957.35156 L 640.70898 957.35156 L 649.52344 972.61914 L 640.70898 987.88477 L 623.08008 987.88477 L 614.26562 972.61914 L 623.08008 957.35156 z "
       transform="matrix(0.26458333,0,0,0.26458333,-12.473226,12.466236)"
       id="path4487" />
  </g>
</svg>
